PathFileType  4	(X/Y/Z) /dataNAS/people/anoopai/OpenCap/opencap-core/Examples/Data/88c07931-43a0-4e08-ab4a-30f03d0e7de7/MarkerData/PreAugmentation
DataRate	CameraRate	NumFrames	NumMarkers	Units	OrigDataRate	OrigDataStartFrame	OrigNumFrames
60.0	60.0	17	20	m	60.0	49	73
Frame#	Time	Neck			RShoulder			RElbow			RWrist			LShoulder			LElbow			LWrist			midHip			RHip			RKnee			RAnkle			LHip			LKnee			LAnkle			LBigToe			LSmallToe			LHeel			RBigToe			RSmallToe			RHeel			
		X1	Y1	Z1	X2	Y2	Z2	X3	Y3	Z3	X4	Y4	Z4	X5	Y5	Z5	X6	Y6	Z6	X7	Y7	Z7	X8	Y8	Z8	X9	Y9	Z9	X10	Y10	Z10	X11	Y11	Z11	X12	Y12	Z12	X13	Y13	Z13	X14	Y14	Z14	X15	Y15	Z15	X16	Y16	Z16	X17	Y17	Z17	X18	Y18	Z18	X19	Y19	Z19	X20	Y20	Z20	

49	0.8000000	0.2680700	1.1350400	-0.2306200	0.2862800	1.1367700	-0.0536500	0.3340700	0.9251300	0.1221000	0.4179600	0.7535100	0.3206300	0.2600500	1.1317300	-0.4102700	0.3089200	0.9484900	-0.5949100	0.3789500	0.7719100	-0.7851400	0.2710600	0.5873400	-0.2140100	0.2921400	0.5942100	-0.0981200	0.1880400	0.2133900	-0.0674400	0.1320000	-0.1796400	-0.0387000	0.2548900	0.5810100	-0.3314900	0.1507600	0.2141700	-0.3349900	0.0908100	-0.1725800	-0.3708700	0.2633000	-0.2298300	-0.4390200	0.2580300	-0.2285600	-0.4370400	0.0524500	-0.2058500	-0.3573000	0.3188000	-0.2328500	-0.0005900	0.3150100	-0.2304500	-0.0009200	0.0964200	-0.2099500	-0.0395500
50	0.8166667	0.2679400	1.1350400	-0.2306800	0.2861000	1.1368400	-0.0537300	0.3342100	0.9250000	0.1222500	0.4179300	0.7534800	0.3206400	0.2599600	1.1316500	-0.4103200	0.3088900	0.9483400	-0.5949300	0.3790200	0.7719700	-0.7851100	0.2709000	0.5871300	-0.2140200	0.2920100	0.5940000	-0.0981100	0.1880100	0.2133900	-0.0674700	0.1320600	-0.1796400	-0.0386700	0.2546700	0.5807800	-0.3315400	0.1508500	0.2142500	-0.3349400	0.0908700	-0.1725700	-0.3708300	0.2632400	-0.2299800	-0.4390500	0.2579600	-0.2287200	-0.4370800	0.0526300	-0.2060400	-0.3570700	0.3186400	-0.2328500	-0.0006100	0.3148500	-0.2304400	-0.0009500	0.0963500	-0.2098600	-0.0393000
51	0.8333333	0.2677800	1.1350200	-0.2307500	0.2858700	1.1368900	-0.0538300	0.3343900	0.9248500	0.1224300	0.4179000	0.7534700	0.3206600	0.2598900	1.1315600	-0.4103600	0.3088700	0.9481700	-0.5949700	0.3790700	0.7720800	-0.7850900	0.2706900	0.5869000	-0.2140500	0.2918800	0.5936900	-0.0981200	0.1879600	0.2133300	-0.0675600	0.1321300	-0.1796900	-0.0386300	0.2543800	0.5807000	-0.3315700	0.1509100	0.2142200	-0.3349100	0.0909400	-0.1725900	-0.3707900	0.2631400	-0.2301200	-0.4390700	0.2578600	-0.2288600	-0.4371100	0.0526800	-0.2060800	-0.3570800	0.3184800	-0.2328700	-0.0006600	0.3146900	-0.2304500	-0.0010100	0.0963500	-0.2099800	-0.0394200
52	0.8500000	0.2676200	1.1350000	-0.2308300	0.2855700	1.1369500	-0.0539700	0.3346200	0.9246800	0.1226300	0.4178900	0.7534700	0.3206700	0.2598400	1.1314900	-0.4103700	0.3088600	0.9480200	-0.5950300	0.3791000	0.7721900	-0.7850700	0.2704700	0.5865600	-0.2140800	0.2917200	0.5933100	-0.0981300	0.1879100	0.2131800	-0.0676200	0.1322000	-0.1797300	-0.0385500	0.2540900	0.5804400	-0.3316600	0.1509200	0.2141300	-0.3349100	0.0909800	-0.1726100	-0.3707400	0.2630100	-0.2302500	-0.4390600	0.2577300	-0.2289900	-0.4370900	0.0527800	-0.2061700	-0.3570000	0.3183200	-0.2328600	-0.0007300	0.3145300	-0.2304600	-0.0010700	0.0962900	-0.2099700	-0.0391800
53	0.8666667	0.2674500	1.1349900	-0.2309100	0.2852300	1.1370400	-0.0541300	0.3348400	0.9246200	0.1228200	0.4178800	0.7534300	0.3207000	0.2598500	1.1313700	-0.4103500	0.3088700	0.9478700	-0.5950800	0.3790900	0.7724400	-0.7850800	0.2701700	0.5862600	-0.2141600	0.2915800	0.5929100	-0.0981400	0.1878600	0.2130000	-0.0677000	0.1322800	-0.1798200	-0.0384600	0.2536700	0.5802500	-0.3318100	0.1508600	0.2140800	-0.3349700	0.0910000	-0.1726300	-0.3706900	0.2628200	-0.2303100	-0.4390800	0.2575400	-0.2290700	-0.4371200	0.0526300	-0.2061400	-0.3570000	0.3182000	-0.2328900	-0.0008200	0.3144000	-0.2304900	-0.0011700	0.0961800	-0.2102100	-0.0391900
54	0.8833333	0.2673200	1.1349400	-0.2309600	0.2849200	1.1370400	-0.0542500	0.3350700	0.9244700	0.1230000	0.4178600	0.7534800	0.3207300	0.2598700	1.1312900	-0.4103300	0.3089000	0.9477500	-0.5951400	0.3790500	0.7725000	-0.7850900	0.2700000	0.5859800	-0.2141900	0.2914000	0.5925700	-0.0981100	0.1878200	0.2128300	-0.0677800	0.1323400	-0.1799100	-0.0383700	0.2535200	0.5799700	-0.3319000	0.1508000	0.2138500	-0.3350300	0.0909900	-0.1726000	-0.3706400	0.2626500	-0.2303900	-0.4390400	0.2573600	-0.2291400	-0.4370700	0.0526100	-0.2061300	-0.3569700	0.3181200	-0.2329300	-0.0009300	0.3143100	-0.2305300	-0.0012700	0.0960900	-0.2103400	-0.0390500
55	0.9000000	0.2672200	1.1348900	-0.2309900	0.2846500	1.1370400	-0.0543400	0.3352800	0.9243300	0.1231600	0.4178300	0.7535400	0.3207500	0.2599300	1.1312100	-0.4103000	0.3089400	0.9476300	-0.5952100	0.3789900	0.7725500	-0.7851400	0.2698200	0.5858600	-0.2142200	0.2912600	0.5924200	-0.0981000	0.1877600	0.2126700	-0.0678400	0.1323600	-0.1799700	-0.0382800	0.2533100	0.5798600	-0.3320100	0.1506900	0.2136600	-0.3351100	0.0909500	-0.1725600	-0.3706100	0.2624700	-0.2304300	-0.4389900	0.2571800	-0.2291800	-0.4370200	0.0526700	-0.2061700	-0.3568700	0.3180700	-0.2329500	-0.0010400	0.3142600	-0.2305700	-0.0013800	0.0959600	-0.2103100	-0.0386500
56	0.9166667	0.2671600	1.1348400	-0.2310000	0.2844600	1.1370000	-0.0543800	0.3354300	0.9242500	0.1232600	0.4177900	0.7535800	0.3207700	0.2600000	1.1311300	-0.4102600	0.3089900	0.9475300	-0.5952800	0.3789200	0.7725600	-0.7852100	0.2697600	0.5859200	-0.2142300	0.2911500	0.5924300	-0.0980900	0.1877200	0.2125400	-0.0678900	0.1323700	-0.1800400	-0.0382100	0.2532700	0.5799700	-0.3320300	0.1505700	0.2134300	-0.3351800	0.0908900	-0.1725300	-0.3705900	0.2623100	-0.2304400	-0.4389400	0.2570300	-0.2291800	-0.4369600	0.0526400	-0.2061600	-0.3568300	0.3180500	-0.2329800	-0.0011400	0.3142500	-0.2305900	-0.0014900	0.0959800	-0.2103300	-0.0385300
57	0.9333333	0.2671300	1.1347700	-0.2309800	0.2843200	1.1369400	-0.0543900	0.3355400	0.9241400	0.1233200	0.4177400	0.7536600	0.3207700	0.2600900	1.1310600	-0.4102100	0.3090300	0.9474100	-0.5953500	0.3788500	0.7724900	-0.7853300	0.2697300	0.5861300	-0.2142300	0.2911000	0.5926100	-0.0980900	0.1877100	0.2124700	-0.0679100	0.1323700	-0.1801100	-0.0381500	0.2532700	0.5802500	-0.3320100	0.1504300	0.2133200	-0.3352500	0.0908400	-0.1725300	-0.3705900	0.2622000	-0.2304400	-0.4388500	0.2569300	-0.2291800	-0.4368700	0.0526000	-0.2061300	-0.3568600	0.3180700	-0.2330200	-0.0012400	0.3142700	-0.2306300	-0.0015800	0.0959000	-0.2104200	-0.0384000
58	0.9500000	0.2671300	1.1347000	-0.2309500	0.2842300	1.1368800	-0.0543500	0.3355700	0.9241600	0.1233100	0.4176900	0.7537200	0.3207600	0.2601600	1.1309700	-0.4101800	0.3090500	0.9473000	-0.5954100	0.3787900	0.7724600	-0.7854900	0.2697400	0.5865100	-0.2142200	0.2911000	0.5929600	-0.0981100	0.1877000	0.2124100	-0.0679100	0.1323800	-0.1801700	-0.0381100	0.2533200	0.5806400	-0.3319700	0.1503300	0.2131700	-0.3352900	0.0907900	-0.1725200	-0.3706200	0.2621500	-0.2304200	-0.4387400	0.2568800	-0.2291600	-0.4367700	0.0526100	-0.2061600	-0.3568600	0.3181200	-0.2330500	-0.0013400	0.3143100	-0.2306600	-0.0016700	0.0959000	-0.2104600	-0.0383100
59	0.9666667	0.2671400	1.1346400	-0.2309100	0.2841700	1.1368300	-0.0543100	0.3355400	0.9241700	0.1232300	0.4176400	0.7537700	0.3207300	0.2602300	1.1309100	-0.4101600	0.3090600	0.9472000	-0.5954300	0.3787600	0.7723800	-0.7856900	0.2698100	0.5867300	-0.2142000	0.2911200	0.5932200	-0.0980600	0.1877200	0.2123700	-0.0679000	0.1324000	-0.1801700	-0.0380700	0.2533800	0.5809600	-0.3319400	0.1502800	0.2129900	-0.3353000	0.0907500	-0.1725500	-0.3706700	0.2621500	-0.2303900	-0.4386300	0.2568800	-0.2291200	-0.4366600	0.0523800	-0.2061200	-0.3569500	0.3181700	-0.2330700	-0.0014300	0.3143700	-0.2306700	-0.0017800	0.0959700	-0.2105100	-0.0383300
60	0.9833333	0.2671500	1.1345800	-0.2308800	0.2841400	1.1368100	-0.0542500	0.3354400	0.9242400	0.1231100	0.4176000	0.7537600	0.3206800	0.2603000	1.1308200	-0.4101500	0.3090700	0.9470900	-0.5953900	0.3787600	0.7723700	-0.7858900	0.2698400	0.5869600	-0.2141900	0.2911800	0.5935200	-0.0980400	0.1877600	0.2123400	-0.0678800	0.1324400	-0.1801600	-0.0380200	0.2533700	0.5811500	-0.3319800	0.1502500	0.2129200	-0.3353100	0.0907300	-0.1725800	-0.3707400	0.2621800	-0.2303700	-0.4385200	0.2569100	-0.2291100	-0.4365500	0.0523500	-0.2061600	-0.3570100	0.3182500	-0.2330900	-0.0015300	0.3144500	-0.2306900	-0.0018700	0.0960400	-0.2105000	-0.0382300
61	1.0000000	0.2671700	1.1345500	-0.2308500	0.2841200	1.1368200	-0.0541900	0.3352800	0.9243700	0.1229500	0.4175700	0.7537600	0.3206300	0.2603500	1.1307500	-0.4101600	0.3090700	0.9470000	-0.5953300	0.3787900	0.7723800	-0.7860400	0.2699000	0.5871500	-0.2141600	0.2912500	0.5937100	-0.0979900	0.1878200	0.2123200	-0.0678500	0.1325200	-0.1801600	-0.0379900	0.2534800	0.5810000	-0.3320200	0.1502600	0.2128800	-0.3353100	0.0907200	-0.1726000	-0.3708200	0.2622600	-0.2303500	-0.4384500	0.2569800	-0.2290900	-0.4364800	0.0522800	-0.2062300	-0.3570200	0.3183300	-0.2330800	-0.0016300	0.3145300	-0.2306700	-0.0019600	0.0962100	-0.2105500	-0.0383000
62	1.0166667	0.2671800	1.1345100	-0.2308100	0.2841300	1.1367700	-0.0540700	0.3350800	0.9245000	0.1227900	0.4175500	0.7537400	0.3205800	0.2603900	1.1306800	-0.4101900	0.3090700	0.9468800	-0.5952600	0.3788800	0.7724700	-0.7861200	0.2699900	0.5871900	-0.2141100	0.2912900	0.5937900	-0.0978900	0.1878900	0.2123000	-0.0678100	0.1326200	-0.1801500	-0.0379600	0.2536000	0.5810500	-0.3319900	0.1503300	0.2127700	-0.3352800	0.0907300	-0.1726200	-0.3708900	0.2623500	-0.2303000	-0.4384500	0.2570800	-0.2290500	-0.4364900	0.0521500	-0.2062200	-0.3570700	0.3184100	-0.2330500	-0.0017000	0.3146100	-0.2306400	-0.0020300	0.0963200	-0.2106000	-0.0382700
63	1.0333333	0.2671900	1.1345100	-0.2307700	0.2841100	1.1368700	-0.0539900	0.3348600	0.9245900	0.1226500	0.4175500	0.7536900	0.3205500	0.2604100	1.1306300	-0.4102000	0.3090600	0.9467600	-0.5952300	0.3790100	0.7725700	-0.7860900	0.2700000	0.5872100	-0.2140700	0.2913100	0.5939000	-0.0978500	0.1879500	0.2123700	-0.0678200	0.1327200	-0.1801100	-0.0379500	0.2536000	0.5809700	-0.3320000	0.1503800	0.2128200	-0.3352700	0.0907500	-0.1725900	-0.3709500	0.2624500	-0.2302800	-0.4384900	0.2571800	-0.2290300	-0.4365400	0.0521900	-0.2062200	-0.3571000	0.3184800	-0.2329600	-0.0017100	0.3146700	-0.2305600	-0.0020300	0.0964800	-0.2105600	-0.0381900
64	1.0500000	0.2671900	1.1345300	-0.2307300	0.2841000	1.1369400	-0.0538900	0.3346200	0.9246700	0.1225200	0.4175400	0.7536300	0.3205400	0.2604300	1.1305800	-0.4102000	0.3090200	0.9466200	-0.5952300	0.3791800	0.7727900	-0.7859700	0.2700300	0.5871300	-0.2140200	0.2913300	0.5938300	-0.0977700	0.1880100	0.2124400	-0.0678100	0.1328200	-0.1800500	-0.0379500	0.2536300	0.5809500	-0.3319500	0.1504600	0.2128200	-0.3352400	0.0908000	-0.1725800	-0.3709900	0.2625600	-0.2302500	-0.4385800	0.2572800	-0.2290100	-0.4366300	0.0521700	-0.2061300	-0.3571700	0.3185400	-0.2328900	-0.0016700	0.3147300	-0.2304800	-0.0020000	0.0966800	-0.2105900	-0.0382900
65	1.0666667	0.2671800	1.1345700	-0.2306800	0.2840900	1.1370400	-0.0538000	0.3343800	0.9247600	0.1224300	0.4175300	0.7535200	0.3205500	0.2604300	1.1305600	-0.4101900	0.3089300	0.9465000	-0.5952500	0.3793600	0.7729000	-0.7857600	0.2700600	0.5869800	-0.2139700	0.2913400	0.5937100	-0.0976800	0.1880200	0.2125900	-0.0678500	0.1329000	-0.1800000	-0.0379800	0.2536700	0.5807500	-0.3319200	0.1505200	0.2129200	-0.3352100	0.0908600	-0.1725200	-0.3710200	0.2626400	-0.2302200	-0.4387200	0.2573600	-0.2289800	-0.4367900	0.0522400	-0.2060500	-0.3571600	0.3185800	-0.2327600	-0.0015700	0.3147700	-0.2303600	-0.0019100	0.0968300	-0.2106500	-0.0384400
